<svg width="420" height="610" xmlns="http://www.w3.org/2000/svg" version="1.1" enable-background="new 0 0 423 320" xml:space="preserve">
 <g>
  <title>Layer 1</title>
  <path id="svg_3" d="m11.78482,648.1147c3.57175,-30.26136 6.35611,-56.58577 24.8883,-82.51648c18.24122,-27.42746 38.84463,-45.01253 79.5265,-44.4876c67.71564,-0.3937 135.43129,-0.78739 203.14693,-1.18109c69.81535,12.59826 81.5827,56.19955 83.06977,62.5976c1.48707,6.39805 9.055,45.14376 9.44869,65.35347l-400.08019,0.2341z" stroke="#000" fill="#000000"/>
  <path id="svg_10" d="m163.61372,460.10056" opacity="NaN" fill-opacity="0.11" stroke="#000000" fill="#e8457e"/>
  <path id="svg_14" d="m152.89295,440.80622" opacity="NaN" fill-opacity="0.44" stroke="#ffffff" fill="#baba01"/>
  <line id="svg_21" y2="418.96719" x2="160.93891" y1="416.66835" x1="121.5712" stroke="null" fill="none"/>
  <ellipse transform="rotate(-1.37539 206.933 356.807)" stroke-width="2" stroke="#000000" ry="5.07936" rx="44.92063" id="svg_6" cy="356.80744" cx="206.93275" fill="#6d2525"/>
  <path transform="rotate(-10 149.545 245.926)" fill="#d37926" stroke-width="2" d="m120.03663,43.59543l59.0169,64.66123l-2.95272,336.37339l-12.65452,3.62667l-43.40966,-404.66129z" id="svg_36" stroke="null"/>
  <text transform="rotate(-102 170.578 201.508)" fill="#ffffff" stroke-width="2" fill-opacity="0.55" x="2.00021" y="210.00013" id="svg_65" font-size="24" font-family="'Montserrat Thin'" text-anchor="start" xml:space="preserve">ОПЫТ  ОПЫТ ОПЫТ  ОПЫТ</text>
  <text transform="rotate(-102 151.25 213.508)" fill="#ffffff" stroke-width="2" x="-17.9998" y="222.00013" id="svg_66" font-size="24" font-family="'Montserrat Thin'" text-anchor="start" xml:space="preserve" fill-opacity="0.55">ОПЫТ  ОПЫТ                ОПЫТ</text>
  <path transform="rotate(-2 196.674 229.151)" fill="#c62fc6" stroke-width="2" d="m160.93552,-0.98961l71.47638,12.30673l-16.38551,446.80319l-18.66342,1.17172l-36.42745,-460.28163l0,-0.00001z" id="svg_37" stroke="null"/>
  <text transform="rotate(-96 186.062 180.508)" fill="#ffffff" stroke-width="2" fill-opacity="0.55" x="-9.9998" y="189.00013" id="svg_64" font-size="24" font-family="'Montserrat Thin'" text-anchor="start" xml:space="preserve">ОБО МНЕ  ОБО МНЕ  ОБО МНЕ</text>
  <text transform="rotate(-102 129.578 222.508)" fill="#ffffff" stroke-width="2" fill-opacity="0.55" x="-41.99981" y="231.00013" id="svg_54" font-size="24" font-family="'Montserrat Thin'" text-anchor="start" xml:space="preserve">ОПЫТ  ОПЫТ  ОПЫТ  ОПЫТ</text>
  <text transform="rotate(-96 226.062 157.508)" fill="#ffffff" stroke-width="10" x="30.00021" y="166.00014" id="svg_50" font-size="24" font-family="'Montserrat Thin'" text-anchor="start" xml:space="preserve" fill-opacity="0.55">ОБО МНЕ  ОБО МНЕ  ОБО МНЕ</text>
  <text transform="rotate(-96 206.68 168.508)" fill="#ffffff" stroke-width="10" x="12.00021" y="177.00013" id="svg_76" font-size="24" font-family="'Montserrat Thin'" text-anchor="start" xml:space="preserve" fill-opacity="0.55">ОБО МНЕ                        ОБО МНЕ</text>
  <path transform="rotate(4 257.547 211.647)" fill="#2bc6c6" stroke-width="2" d="m230.96555,59.83325l54.19599,-63.25694l-39.89664,430.14112l-15.33297,-2l1.03362,-364.88417l0,-0.00001z" id="svg_39" stroke="null"/>
  <ellipse transform="rotate(8.66299 211 394)" fill="#ffffff" stroke-width="15" cx="211.00024" cy="394.00016" id="svg_9" rx="57.00001" ry="32" stroke="null"/>
  <g id="svg_29">
   <path id="svg_13" d="m161.64469,401.56135" opacity="NaN" fill-opacity="0.44" stroke="#ffffff" fill="#baba01"/>
   <ellipse stroke="null" ry="20.25856" rx="19.54018" id="svg_15" cy="403.14181" cx="186.64463" fill="#000000"/>
   <ellipse stroke="null" ry="19.3965" rx="19.68386" id="svg_17" cy="403.14181" cx="235.63875" fill="#000000"/>
   <ellipse stroke="null" ry="13.36203" rx="13.21836" id="svg_18" cy="403.71652" cx="186.64463" fill="#ffffff"/>
   <ellipse stroke="null" ry="12.931" rx="12.78732" id="svg_19" cy="403.28549" cx="235.63874" fill="#ffffff"/>
   <path stroke="null" id="svg_28" d="m204.66351,398.07928c0,0 2.32841,-2.54815 6.0408,-2.60943c3.71239,-0.06128 4.68853,0.53456 6.60918,1.80864c1.92065,1.27408 -2.08967,3.8645 -0.16903,5.74711c1.92064,1.88261 -2.39394,-1.74736 -6.7106,-1.11561c-4.31666,0.63175 -5.19564,2.23756 -5.47666,2.18052c-0.0979,-1.8009 -0.19579,-4.21033 -0.29369,-6.01123z" fill="#000000"/>
  </g>
  <path fill="#e8457e" stroke="null" d="m135.49987,554.44429l-6.4976,-9.49812l6.4976,9.49812z" id="svg_1"/>
  <path stroke="#9b530f" id="svg_12" d="m142.78011,418.96602c0,0 4.77214,-7.43186 6.2761,-14.25375c1.50396,-6.82189 1.18658,-10.74626 1.1194,-10.8209c0.06718,0.07464 0.44032,-9.25372 0.37313,-9.32836c0.06719,0.07464 0.39172,-4.54799 0.74627,-8.20896c0.35455,-3.66097 2.1416,-6.52945 3.35821,-9.32836c1.21661,-2.79891 5.67138,-8.25357 7.46269,-9.32835c12.71939,6.27153 41.45035,4.81567 56.3176,4.02825c14.86724,-0.78742 21.10552,-0.70906 27.82936,-4.07019c6.72384,-3.36114 5.90489,-3.20334 9.7077,4.6299c3.80281,7.83324 25.33104,38.29933 26.2603,39.52339c0.92926,1.22406 4.47045,5.29077 7.12384,11.11253c2.65339,5.82176 3.05227,8.65674 3.05227,9.02987c0,0.37314 -54.47046,5.96241 -49.23087,3.45085c5.23959,-2.51156 10.05176,-15.76428 9.98457,-15.83893c0.06719,0.07465 2.13732,-4.40643 0.48037,-10.65361c-1.65694,-6.24718 -5.14525,-10.11499 -8.23897,-13.20125c-13.74733,-15.62701 -11.77161,-14.84993 -18.60096,-15.34999c-6.82934,-0.50006 -8.70076,0.84747 -12.36919,1.78418c-3.66843,0.93671 -14.73951,5.61671 -25.01712,-3.21667c-10.27761,-8.83338 -7.57279,-8.21066 -7.21825,-5.83717c0.35454,2.37349 -0.59477,12.9936 -3.40114,19.39008c-2.80637,6.39647 -11.30267,9.43737 -11.38846,20.06953c-0.08578,10.63216 5.09379,16.60746 8.03453,20.41773c2.94074,3.81027 -32.6614,-3.99981 -32.6614,-3.99981l0.00002,-0.00001l0,0.00001l0,-0.00001z" fill="#9b530f"/>
  <path stroke-width="2" id="svg_11" d="m252.29548,355.12921c-13.46215,6.98413 -77.8882,10.63492 -90.86956,1.90476" fill="none" stroke="#000000"/>
  <path id="svg_2" d="m79.10524,580.19826c0.52631,4.7368 0.63405,11.4608 7.36216,11.09353c6.72811,-0.36728 235.6283,1.59259 245.58829,1.59259c9.95999,0 9.69598,-4.6417 9.69598,-9.76674c0,-5.12505 -0.40588,-151.13956 -0.58978,-159.79404c-0.18389,-8.65447 -5.53596,-6.8894 -15.71571,-7.25668c-10.17975,-0.36728 -233.48933,-1.03896 -234.13191,-1.03896c-12.88531,-0.64873 -12.20903,8.6283 -12.85161,8.6283l0.64258,156.542z" fill="#191919"/>
  <text cy="33.53994" cx="3.70641" ry="79.37429" rx="40.20798" transform="matrix(0.80691 0 0 0.707254 22.3867 31.2726)" stroke="#000" font-style="italic" font-weight="normal" xml:space="preserve" text-anchor="start" font-family="'Montserrat Thin'" font-size="24" stroke-width="0" id="svg_5" y="677.42883" x="94.98385" fill="#ffffff">aser</text>
  <path fill="none" stroke="#277cd1" stroke-width="5" opacity="NaN" d="m315.00025,232.00014" id="svg_26"/>
  <text transform="rotate(-102 142.648 171.508)" fill="#ffffff" stroke-width="2" x="104.00022" y="180.00013" id="svg_67" font-size="24" font-family="'Montserrat Thin'" text-anchor="start" xml:space="preserve" stroke="#ffffff" fill-opacity="0.9" stroke-opacity="0.9">ОПЫТ</text>
  <text transform="rotate(-86 266.961 167.508)" fill="#ffffff" stroke-width="10" fill-opacity="0.55" x="86.00023" y="176.00013" id="svg_80" font-size="24" font-family="'Montserrat Thin'" text-anchor="start" xml:space="preserve">ПЛАНЫ  ПЛАНЫ  ПЛАНЫ ПЛ</text>
  <text transform="rotate(-96 206.359 169.508)" fill="#ffffff" stroke="#ffffff" stroke-width="2" x="145.00023" y="178.00013" id="svg_78" font-size="24" font-family="'Montserrat Thin'" text-anchor="start" xml:space="preserve" stroke-opacity="0.9">ОБО МНЕ</text>
  <text transform="rotate(-86 243.883 204.508)" fill="#ffffff" stroke-width="2" fill-opacity="0.55" x="86.0002" y="213.00013" id="svg_82" font-size="24" font-family="'Montserrat Thin'" text-anchor="start" xml:space="preserve">ПЛАНЫ                    ПЛАНЫ</text>
  <text transform="rotate(-86 294.953 61.508)" fill="#ffffff" stroke-width="2" fill-opacity="0.55" x="246.00024" y="70.00011" id="svg_81" font-size="24" font-family="'Montserrat Thin'" text-anchor="start" xml:space="preserve">ПЛАНЫ</text>
  <text transform="rotate(-86 243.953 202.508)" fill="#ffffff" stroke-width="2" x="195.00023" y="211.00013" id="svg_83" font-size="24" font-family="'Montserrat Thin'" text-anchor="start" xml:space="preserve" stroke="#ffffff" fill-opacity="0.9" stroke-opacity="0.9">ПЛАНЫ</text>
 </g>

</svg>