<svg width="423" height="320" xmlns="http://www.w3.org/2000/svg" xml:space="preserve" enable-background="new 0 0 423 320" version="1.1">
 <g>
  <title>Layer 1</title>
  <path fill="#000000" stroke="#000" d="m11.78109,358.66613c3.57175,-30.26136 6.35611,-56.58577 24.8883,-82.51648c18.24122,-27.42746 38.84463,-45.01253 79.5265,-44.4876c67.71564,-0.3937 135.43129,-0.78739 203.14693,-1.18109c69.81535,12.59826 81.5827,56.19955 83.06977,62.5976c1.48707,6.39805 9.055,45.14376 9.44869,65.35347l-400.08019,0.2341z" id="svg_3"/>
  <path fill="#e8457e" stroke="#000000" fill-opacity="0.11" opacity="NaN" d="m163.60999,170.652" id="svg_10"/>
  <path fill="#baba01" stroke="#ffffff" fill-opacity="0.44" opacity="NaN" d="m152.88922,151.35766" id="svg_14"/>
  <line fill="none" stroke="null" x1="121.56747" y1="127.21979" x2="160.93518" y2="129.51863" id="svg_21"/>
  <ellipse fill="#ffffff" opacity="NaN" cx="210.78361" cy="113.00734" id="svg_30" rx="46.24722" ry="46.34864" stroke="null"/>
  <path fill="#9b530f" stroke="#9b530f" d="m142.43155,129.51746c0,0 4.77214,-7.43186 6.2761,-14.25375c1.50396,-6.82189 1.18658,-10.74626 1.1194,-10.8209c0.06718,0.07464 0.44032,-9.25372 0.37313,-9.32836c0.06719,0.07464 0.39172,-4.54799 0.74627,-8.20896c0.35455,-3.66097 2.1416,-6.52945 3.35821,-9.32836c1.21661,-2.79891 5.67138,-8.25357 7.46269,-9.32835c1.79131,-1.07478 6.95804,-5.52584 13.0597,-7.46269c6.10166,-1.93685 8.62214,-1.59292 15.29851,-4.10448c6.67637,-2.51156 22.96854,-6.55948 33.66787,-7.34689c10.69934,-0.78742 21.8877,7.70114 25.40315,11.79876c3.51546,4.09763 11.75303,17.56564 15.55584,25.39888c3.80281,7.83324 16.20063,24.60371 17.12989,25.82777c0.92926,1.22406 4.47045,5.29077 7.12384,11.11253c2.65339,5.82176 3.05227,8.65674 3.05227,9.02987c0,0.37314 -54.47046,5.96241 -49.23087,3.45085c5.23959,-2.51156 10.05176,-15.76428 9.98457,-15.83893c0.06719,0.07465 2.13732,-4.40643 0.48037,-10.65361c-1.65694,-6.24718 -5.14525,-10.11499 -8.23897,-13.20125c-13.74733,-15.62701 -11.77161,-14.84993 -18.60096,-15.34999c-6.82934,-0.50006 -8.70076,0.84747 -12.36919,1.78418c-3.66843,0.93671 -14.73951,5.61671 -25.01712,-3.21667c-10.27761,-8.83338 -7.57279,-18.55545 -7.21825,-5.83717c0.35454,12.71828 -0.59477,12.9936 -3.40114,19.39008c-2.80637,6.39647 -11.30267,9.43737 -11.38846,20.06953c-0.08578,10.63216 5.09379,16.60746 8.03453,20.41773c2.94074,3.81027 -32.6614,-3.99981 -32.6614,-3.99981l0.00002,-0.00001z" id="svg_12"/>
  <g id="svg_29">
   <path fill="#baba01" stroke="#ffffff" fill-opacity="0.44" opacity="NaN" d="m160.7714,112.98235" id="svg_13"/>
   <ellipse fill="#000000" cx="185.77134" cy="114.56281" id="svg_15" rx="19.54018" ry="20.25856" stroke="null"/>
   <ellipse fill="#000000" cx="234.76546" cy="114.56281" id="svg_17" rx="19.68386" ry="19.3965" stroke="null"/>
   <ellipse fill="#ffffff" cx="185.77134" cy="115.13752" id="svg_18" rx="13.21836" ry="13.36203" stroke="null"/>
   <ellipse fill="#ffffff" cx="234.76545" cy="114.70649" id="svg_19" rx="12.78732" ry="12.931" stroke="null"/>
   <path fill="#000000" d="m203.79022,109.50028c0,0 2.32841,-2.54815 6.0408,-2.60943c3.71239,-0.06128 4.68853,0.53456 6.60918,1.80864c1.92065,1.27408 -2.08967,3.8645 -0.16903,5.74711c1.92064,1.88261 -2.39394,-1.74736 -6.7106,-1.11561c-4.31666,0.63175 -5.19564,2.23756 -5.47666,2.18052c-0.0979,-1.8009 -0.19579,-4.21033 -0.29369,-6.01123z" id="svg_28" stroke="null"/>
  </g>
  <path id="svg_1" d="m135.49614,264.99573l-6.4976,-9.49812l6.4976,9.49812z" stroke="null" fill="#e8457e"/>
  <path fill="#191919" d="m79.10152,290.7497c0.52631,4.7368 0.63405,11.4608 7.36216,11.09353c6.72811,-0.36728 235.6283,1.59259 245.58829,1.59259c9.95999,0 9.69598,-4.6417 9.69598,-9.76674c0,-5.12505 -0.40588,-151.13956 -0.58978,-159.79404c-0.18389,-8.65447 -5.53596,-6.8894 -15.71571,-7.25668c-10.17975,-0.36728 -233.48933,-1.03896 -234.13191,-1.03896c-12.88531,-0.64873 -12.20903,8.6283 -12.85161,8.6283l0.64258,156.542z" id="svg_2"/>
  <text fill="#ffffff" x="94.97933" y="268.17137" id="svg_5" stroke-width="0" font-size="24" font-family="'Montserrat Thin'" text-anchor="start" xml:space="preserve" font-weight="normal" font-style="italic" stroke="#000" transform="matrix(0.80691 0 0 0.707254 22.3867 31.2726)">asus</text>
 </g>

</svg>