<svg width="1919.9999999999998" height="1110" xmlns="http://www.w3.org/2000/svg" xml:space="preserve" enable-background="new 0 0 423 320" version="1.1">
 <g>
  <title>Layer 1</title>
  <path fill="#000000" stroke="#000" d="m694.78482,1064.1147c3.57175,-30.26136 6.35611,-56.58577 24.8883,-82.51648c18.24122,-27.42746 38.84463,-45.01253 79.5265,-44.4876c67.71564,-0.3937 135.43129,-0.78739 203.14693,-1.18109c69.81535,12.59826 81.5827,56.19955 83.06977,62.5976c1.48707,6.39805 9.055,45.14376 9.44869,65.35347l-400.08019,0.2341z" id="svg_3"/>
  <path fill="#e8457e" stroke="#000000" fill-opacity="0.11" opacity="NaN" d="m846.61372,876.10056" id="svg_10"/>
  <path fill="#baba01" stroke="#ffffff" fill-opacity="0.44" opacity="NaN" d="m835.89295,856.80622" id="svg_14"/>
  <line fill="none" stroke="null" x1="804.5712" y1="832.66835" x2="843.93891" y2="834.96719" id="svg_21"/>
  <ellipse transform="rotate(-1.37539 889.933 772.807)" fill="#6d2525" cx="889.93275" cy="772.80744" id="svg_6" rx="44.92063" ry="5.07936" stroke="#000000" stroke-width="2"/>
  <path transform="rotate(-10 832.545 661.926)" stroke="null" id="svg_36" d="m803.03663,459.59543l59.0169,64.66123l-2.95272,336.37339l-12.65452,3.62667l-43.40966,-404.66129z" stroke-width="2" fill="#d37926"/>
  <text transform="rotate(-102 853.578 617.508)" xml:space="preserve" text-anchor="start" font-family="'Montserrat Thin'" font-size="24" id="svg_65" y="626.00013" x="685.00021" fill-opacity="0.55" stroke-width="2" fill="#ffffff">ОПЫТ  ОПЫТ ОПЫТ  ОПЫТ</text>
  <text transform="rotate(-102 834.25 629.508)" fill-opacity="0.55" xml:space="preserve" text-anchor="start" font-family="'Montserrat Thin'" font-size="24" id="svg_66" y="638.00013" x="665.0002" stroke-width="2" fill="#ffffff">ОПЫТ  ОПЫТ                ОПЫТ</text>
  <path transform="rotate(-2 879.674 645.151)" stroke="null" id="svg_37" d="m843.93552,415.01039l71.47638,12.30673l-16.38551,446.80319l-18.66342,1.17172l-36.42745,-460.28163z" stroke-width="2" fill="#c62fc6"/>
  <text transform="rotate(-96 869.062 596.508)" xml:space="preserve" text-anchor="start" font-family="'Montserrat Thin'" font-size="24" id="svg_64" y="605.00013" x="673.0002" fill-opacity="0.55" stroke-width="2" fill="#ffffff">ОБО МНЕ  ОБО МНЕ  ОБО МНЕ</text>
  <text transform="rotate(-102 812.578 638.508)" xml:space="preserve" text-anchor="start" font-family="'Montserrat Thin'" font-size="24" id="svg_54" y="647.00013" x="641.00019" fill-opacity="0.55" stroke-width="2" fill="#ffffff">ОПЫТ  ОПЫТ  ОПЫТ  ОПЫТ</text>
  <text transform="rotate(-96 909.062 573.508)" fill-opacity="0.55" xml:space="preserve" text-anchor="start" font-family="'Montserrat Thin'" font-size="24" id="svg_50" y="582.00014" x="713.00021" stroke-width="10" fill="#ffffff">ОБО МНЕ  ОБО МНЕ  ОБО МНЕ</text>
  <text transform="rotate(-96 889.68 584.508)" fill-opacity="0.55" xml:space="preserve" text-anchor="start" font-family="'Montserrat Thin'" font-size="24" id="svg_76" y="593.00013" x="695.00021" stroke-width="10" fill="#ffffff">ОБО МНЕ                        ОБО МНЕ</text>
  <path transform="rotate(4 940.547 627.647)" stroke="null" id="svg_39" d="m913.96555,475.83325l54.19599,-63.25694l-39.89664,430.14112l-15.33297,-2l1.03362,-364.88417z" stroke-width="2" fill="#2bc6c6"/>
  <ellipse transform="rotate(8.66299 894 810)" stroke="null" ry="32" rx="57.00001" id="svg_9" cy="810.00016" cx="894.00024" stroke-width="15" fill="#ffffff"/>
  <g id="svg_29">
   <path fill="#baba01" stroke="#ffffff" fill-opacity="0.44" opacity="NaN" d="m844.64469,817.56135" id="svg_13"/>
   <ellipse fill="#000000" cx="869.64463" cy="819.14181" id="svg_15" rx="19.54018" ry="20.25856" stroke="null"/>
   <ellipse fill="#000000" cx="918.63875" cy="819.14181" id="svg_17" rx="19.68386" ry="19.3965" stroke="null"/>
   <ellipse fill="#ffffff" cx="869.64463" cy="819.71652" id="svg_18" rx="13.21836" ry="13.36203" stroke="null"/>
   <ellipse fill="#ffffff" cx="918.63874" cy="819.28549" id="svg_19" rx="12.78732" ry="12.931" stroke="null"/>
   <path fill="#000000" d="m887.66351,814.07928c0,0 2.32841,-2.54815 6.0408,-2.60943c3.71239,-0.06128 4.68853,0.53456 6.60918,1.80864c1.92065,1.27408 -2.08967,3.8645 -0.16903,5.74711c1.92064,1.88261 -2.39394,-1.74736 -6.7106,-1.11561c-4.31666,0.63175 -5.19564,2.23756 -5.47666,2.18052c-0.0979,-1.8009 -0.19579,-4.21033 -0.29369,-6.01123z" id="svg_28" stroke="null"/>
  </g>
  <path id="svg_1" d="m818.49987,970.44429l-6.4976,-9.49812l6.4976,9.49812z" stroke="null" fill="#e8457e"/>
  <path fill="#9b530f" d="m825.78011,834.96602c0,0 4.77214,-7.43186 6.2761,-14.25375c1.50396,-6.82189 1.18658,-10.74626 1.1194,-10.8209c0.06718,0.07464 0.44032,-9.25372 0.37313,-9.32836c0.06719,0.07464 0.39172,-4.54799 0.74627,-8.20896c0.35455,-3.66097 2.1416,-6.52945 3.35821,-9.32836c1.21661,-2.79891 5.67138,-8.25357 7.46269,-9.32835c12.71939,6.27153 41.45035,4.81567 56.3176,4.02825c14.86724,-0.78742 21.10552,-0.70906 27.82936,-4.07019c6.72384,-3.36114 5.90489,-3.20334 9.7077,4.6299c3.80281,7.83324 25.33104,38.29933 26.2603,39.52339c0.92926,1.22406 4.47045,5.29077 7.12384,11.11253c2.65339,5.82176 3.05227,8.65674 3.05227,9.02987c0,0.37314 -54.47046,5.96241 -49.23087,3.45085c5.23959,-2.51156 10.05176,-15.76428 9.98457,-15.83893c0.06719,0.07465 2.13732,-4.40643 0.48037,-10.65361c-1.65694,-6.24718 -5.14525,-10.11499 -8.23897,-13.20125c-13.74733,-15.62701 -11.77161,-14.84993 -18.60096,-15.34999c-6.82934,-0.50006 -8.70076,0.84747 -12.36919,1.78418c-3.66843,0.93671 -14.73951,5.61671 -25.01712,-3.21667c-10.27761,-8.83338 -7.57279,-8.21066 -7.21825,-5.83717c0.35454,2.37349 -0.59477,12.9936 -3.40114,19.39008c-2.80637,6.39647 -11.30267,9.43737 -11.38846,20.06953c-0.08578,10.63216 5.09379,16.60746 8.03453,20.41773c2.94074,3.81027 -32.6614,-3.99981 -32.6614,-3.99981l0.00002,-0.00001l0,0.00001z" id="svg_12" stroke="#9b530f"/>
  <path stroke="#000000" fill="none" d="m935.29548,771.12921c-13.46215,6.98413 -77.8882,10.63492 -90.86956,1.90476" id="svg_11" stroke-width="2"/>
  <path fill="#191919" d="m762.10524,996.19826c0.52631,4.7368 0.63405,11.4608 7.36216,11.09353c6.72811,-0.36728 235.6283,1.59259 245.58829,1.59259c9.95999,0 9.69598,-4.6417 9.69598,-9.76674c0,-5.12505 -0.40588,-151.13956 -0.58978,-159.79404c-0.18389,-8.65447 -5.53596,-6.8894 -15.71571,-7.25668c-10.17975,-0.36728 -233.48933,-1.03896 -234.13191,-1.03896c-12.88531,-0.64873 -12.20903,8.6283 -12.85161,8.6283l0.64258,156.542z" id="svg_2"/>
  <text style="cursor: move;" fill="#ffffff" x="941.42276" y="1265.61922" id="svg_5" stroke-width="0" font-size="24" font-family="'Montserrat Thin'" text-anchor="start" xml:space="preserve" font-weight="normal" font-style="italic" stroke="#000" transform="matrix(0.80691 0 0 0.707254 22.3867 31.2726)" rx="40.20798" ry="79.37429" cx="3.70641" cy="33.53994">aser</text>
  <path id="svg_26" d="m998.00025,648.00014" opacity="NaN" stroke-width="5" stroke="#277cd1" fill="none"/>
  <text transform="rotate(-102 825.648 587.508)" stroke-opacity="0.9" fill-opacity="0.9" stroke="#ffffff" xml:space="preserve" text-anchor="start" font-family="'Montserrat Thin'" font-size="24" id="svg_67" y="596.00013" x="787.00022" stroke-width="2" fill="#ffffff">ОПЫТ</text>
  <text transform="rotate(-86 949.961 583.508)" xml:space="preserve" text-anchor="start" font-family="'Montserrat Thin'" font-size="24" id="svg_80" y="592.00013" x="769.00023" fill-opacity="0.55" stroke-width="10" fill="#ffffff">ПЛАНЫ  ПЛАНЫ  ПЛАНЫ ПЛ</text>
  <text transform="rotate(-96 889.359 585.508)" stroke-opacity="0.9" xml:space="preserve" text-anchor="start" font-family="'Montserrat Thin'" font-size="24" id="svg_78" y="594.00013" x="828.00023" stroke-width="2" stroke="#ffffff" fill="#ffffff">ОБО МНЕ</text>
  <text transform="rotate(-86 926.883 620.508)" xml:space="preserve" text-anchor="start" font-family="'Montserrat Thin'" font-size="24" id="svg_82" y="629.00013" x="769.0002" fill-opacity="0.55" stroke-width="2" fill="#ffffff">ПЛАНЫ                    ПЛАНЫ</text>
  <text transform="rotate(-86 977.953 477.508)" xml:space="preserve" text-anchor="start" font-family="'Montserrat Thin'" font-size="24" id="svg_81" y="486.00011" x="929.00024" fill-opacity="0.55" stroke-width="2" fill="#ffffff">ПЛАНЫ</text>
  <text transform="rotate(-86 926.953 618.508)" stroke-opacity="0.9" fill-opacity="0.9" stroke="#ffffff" xml:space="preserve" text-anchor="start" font-family="'Montserrat Thin'" font-size="24" id="svg_83" y="627.00013" x="878.00023" stroke-width="2" fill="#ffffff">ПЛАНЫ</text>
 </g>

</svg>